<mxfile host="app.diagrams.net" agent="Mozilla/5.0 (Windows NT 10.0; Win64; x64) AppleWebKit/537.36 (KHTML, like Gecko) Chrome/135.0.0.0 Safari/537.36 Edg/135.0.0.0" version="26.2.5">
  <diagram name="Page-1" id="3DtSC29LpzF9sRXxUmHe">
    <mxGraphModel dx="1714" dy="920" grid="1" gridSize="10" guides="1" tooltips="1" connect="1" arrows="1" fold="1" page="1" pageScale="1" pageWidth="850" pageHeight="1100" math="0" shadow="0">
      <root>
        <mxCell id="0" />
        <mxCell id="1" parent="0" />
        <mxCell id="mSR1EGi9H52Qq8BrN1vQ-5" value="" style="group" vertex="1" connectable="0" parent="1">
          <mxGeometry x="280" y="400" width="40" height="40" as="geometry" />
        </mxCell>
        <mxCell id="mSR1EGi9H52Qq8BrN1vQ-1" value="" style="endArrow=none;html=1;rounded=0;" edge="1" parent="mSR1EGi9H52Qq8BrN1vQ-5">
          <mxGeometry width="50" height="50" relative="1" as="geometry">
            <mxPoint x="10" y="40" as="sourcePoint" />
            <mxPoint x="10" as="targetPoint" />
          </mxGeometry>
        </mxCell>
        <mxCell id="mSR1EGi9H52Qq8BrN1vQ-2" value="" style="endArrow=none;html=1;rounded=0;" edge="1" parent="mSR1EGi9H52Qq8BrN1vQ-5">
          <mxGeometry width="50" height="50" relative="1" as="geometry">
            <mxPoint y="40" as="sourcePoint" />
            <mxPoint as="targetPoint" />
          </mxGeometry>
        </mxCell>
        <mxCell id="mSR1EGi9H52Qq8BrN1vQ-3" value="" style="endArrow=none;html=1;rounded=0;" edge="1" parent="mSR1EGi9H52Qq8BrN1vQ-5">
          <mxGeometry width="50" height="50" relative="1" as="geometry">
            <mxPoint x="40" as="sourcePoint" />
            <mxPoint x="10" as="targetPoint" />
          </mxGeometry>
        </mxCell>
        <mxCell id="mSR1EGi9H52Qq8BrN1vQ-4" value="" style="endArrow=none;html=1;rounded=0;" edge="1" parent="mSR1EGi9H52Qq8BrN1vQ-5">
          <mxGeometry width="50" height="50" relative="1" as="geometry">
            <mxPoint x="40" y="40" as="sourcePoint" />
            <mxPoint x="10" y="40" as="targetPoint" />
          </mxGeometry>
        </mxCell>
        <mxCell id="mSR1EGi9H52Qq8BrN1vQ-6" value="" style="group" vertex="1" connectable="0" parent="1">
          <mxGeometry x="280" y="480" width="40" height="40" as="geometry" />
        </mxCell>
        <mxCell id="mSR1EGi9H52Qq8BrN1vQ-7" value="" style="endArrow=none;html=1;rounded=0;" edge="1" parent="mSR1EGi9H52Qq8BrN1vQ-6">
          <mxGeometry width="50" height="50" relative="1" as="geometry">
            <mxPoint x="10" y="40" as="sourcePoint" />
            <mxPoint x="10" as="targetPoint" />
          </mxGeometry>
        </mxCell>
        <mxCell id="mSR1EGi9H52Qq8BrN1vQ-8" value="" style="endArrow=none;html=1;rounded=0;" edge="1" parent="mSR1EGi9H52Qq8BrN1vQ-6">
          <mxGeometry width="50" height="50" relative="1" as="geometry">
            <mxPoint y="40" as="sourcePoint" />
            <mxPoint as="targetPoint" />
          </mxGeometry>
        </mxCell>
        <mxCell id="mSR1EGi9H52Qq8BrN1vQ-9" value="" style="endArrow=none;html=1;rounded=0;" edge="1" parent="mSR1EGi9H52Qq8BrN1vQ-6">
          <mxGeometry width="50" height="50" relative="1" as="geometry">
            <mxPoint x="40" as="sourcePoint" />
            <mxPoint x="10" as="targetPoint" />
          </mxGeometry>
        </mxCell>
        <mxCell id="mSR1EGi9H52Qq8BrN1vQ-10" value="" style="endArrow=none;html=1;rounded=0;" edge="1" parent="mSR1EGi9H52Qq8BrN1vQ-6">
          <mxGeometry width="50" height="50" relative="1" as="geometry">
            <mxPoint x="40" y="40" as="sourcePoint" />
            <mxPoint x="10" y="40" as="targetPoint" />
          </mxGeometry>
        </mxCell>
        <mxCell id="mSR1EGi9H52Qq8BrN1vQ-11" value="" style="group;rotation=-180;" vertex="1" connectable="0" parent="1">
          <mxGeometry x="400" y="440" width="40" height="40" as="geometry" />
        </mxCell>
        <mxCell id="mSR1EGi9H52Qq8BrN1vQ-12" value="" style="endArrow=none;html=1;rounded=0;" edge="1" parent="mSR1EGi9H52Qq8BrN1vQ-11">
          <mxGeometry width="50" height="50" relative="1" as="geometry">
            <mxPoint x="30" as="sourcePoint" />
            <mxPoint x="30" y="40" as="targetPoint" />
          </mxGeometry>
        </mxCell>
        <mxCell id="mSR1EGi9H52Qq8BrN1vQ-13" value="" style="endArrow=none;html=1;rounded=0;" edge="1" parent="mSR1EGi9H52Qq8BrN1vQ-11">
          <mxGeometry width="50" height="50" relative="1" as="geometry">
            <mxPoint x="40" as="sourcePoint" />
            <mxPoint x="40" y="40" as="targetPoint" />
          </mxGeometry>
        </mxCell>
        <mxCell id="mSR1EGi9H52Qq8BrN1vQ-14" value="" style="endArrow=none;html=1;rounded=0;" edge="1" parent="mSR1EGi9H52Qq8BrN1vQ-11">
          <mxGeometry width="50" height="50" relative="1" as="geometry">
            <mxPoint y="40" as="sourcePoint" />
            <mxPoint x="30" y="40" as="targetPoint" />
          </mxGeometry>
        </mxCell>
        <mxCell id="mSR1EGi9H52Qq8BrN1vQ-15" value="" style="endArrow=none;html=1;rounded=0;" edge="1" parent="mSR1EGi9H52Qq8BrN1vQ-11">
          <mxGeometry width="50" height="50" relative="1" as="geometry">
            <mxPoint as="sourcePoint" />
            <mxPoint x="30" as="targetPoint" />
          </mxGeometry>
        </mxCell>
        <mxCell id="mSR1EGi9H52Qq8BrN1vQ-24" value="" style="group" vertex="1" connectable="0" parent="1">
          <mxGeometry x="310" y="240" width="50" height="40" as="geometry" />
        </mxCell>
        <mxCell id="mSR1EGi9H52Qq8BrN1vQ-17" value="" style="endArrow=none;html=1;rounded=0;" edge="1" parent="mSR1EGi9H52Qq8BrN1vQ-24">
          <mxGeometry width="50" height="50" relative="1" as="geometry">
            <mxPoint x="20" y="40" as="sourcePoint" />
            <mxPoint x="20" as="targetPoint" />
          </mxGeometry>
        </mxCell>
        <mxCell id="mSR1EGi9H52Qq8BrN1vQ-18" value="" style="endArrow=none;html=1;rounded=0;" edge="1" parent="mSR1EGi9H52Qq8BrN1vQ-24">
          <mxGeometry width="50" height="50" relative="1" as="geometry">
            <mxPoint x="10" y="40" as="sourcePoint" />
            <mxPoint x="10" as="targetPoint" />
          </mxGeometry>
        </mxCell>
        <mxCell id="mSR1EGi9H52Qq8BrN1vQ-19" value="" style="endArrow=none;html=1;rounded=0;" edge="1" parent="mSR1EGi9H52Qq8BrN1vQ-24">
          <mxGeometry width="50" height="50" relative="1" as="geometry">
            <mxPoint x="50" as="sourcePoint" />
            <mxPoint x="20" as="targetPoint" />
          </mxGeometry>
        </mxCell>
        <mxCell id="mSR1EGi9H52Qq8BrN1vQ-20" value="" style="endArrow=none;html=1;rounded=0;" edge="1" parent="mSR1EGi9H52Qq8BrN1vQ-24">
          <mxGeometry width="50" height="50" relative="1" as="geometry">
            <mxPoint x="50" y="40" as="sourcePoint" />
            <mxPoint x="20" y="40" as="targetPoint" />
          </mxGeometry>
        </mxCell>
        <mxCell id="mSR1EGi9H52Qq8BrN1vQ-22" value="" style="ellipse;whiteSpace=wrap;html=1;aspect=fixed;" vertex="1" parent="mSR1EGi9H52Qq8BrN1vQ-24">
          <mxGeometry y="15" width="10" height="10" as="geometry" />
        </mxCell>
        <mxCell id="mSR1EGi9H52Qq8BrN1vQ-25" value="" style="group" vertex="1" connectable="0" parent="1">
          <mxGeometry x="270" y="120" width="50" height="40" as="geometry" />
        </mxCell>
        <mxCell id="mSR1EGi9H52Qq8BrN1vQ-26" value="" style="endArrow=none;html=1;rounded=0;" edge="1" parent="mSR1EGi9H52Qq8BrN1vQ-25">
          <mxGeometry width="50" height="50" relative="1" as="geometry">
            <mxPoint x="20" y="40" as="sourcePoint" />
            <mxPoint x="20" as="targetPoint" />
          </mxGeometry>
        </mxCell>
        <mxCell id="mSR1EGi9H52Qq8BrN1vQ-27" value="" style="endArrow=none;html=1;rounded=0;" edge="1" parent="mSR1EGi9H52Qq8BrN1vQ-25">
          <mxGeometry width="50" height="50" relative="1" as="geometry">
            <mxPoint x="10" y="40" as="sourcePoint" />
            <mxPoint x="10" as="targetPoint" />
          </mxGeometry>
        </mxCell>
        <mxCell id="mSR1EGi9H52Qq8BrN1vQ-28" value="" style="endArrow=none;html=1;rounded=0;" edge="1" parent="mSR1EGi9H52Qq8BrN1vQ-25">
          <mxGeometry width="50" height="50" relative="1" as="geometry">
            <mxPoint x="50" as="sourcePoint" />
            <mxPoint x="20" as="targetPoint" />
          </mxGeometry>
        </mxCell>
        <mxCell id="mSR1EGi9H52Qq8BrN1vQ-29" value="" style="endArrow=none;html=1;rounded=0;" edge="1" parent="mSR1EGi9H52Qq8BrN1vQ-25">
          <mxGeometry width="50" height="50" relative="1" as="geometry">
            <mxPoint x="50" y="40" as="sourcePoint" />
            <mxPoint x="20" y="40" as="targetPoint" />
          </mxGeometry>
        </mxCell>
        <mxCell id="mSR1EGi9H52Qq8BrN1vQ-30" value="" style="ellipse;whiteSpace=wrap;html=1;aspect=fixed;" vertex="1" parent="mSR1EGi9H52Qq8BrN1vQ-25">
          <mxGeometry y="15" width="10" height="10" as="geometry" />
        </mxCell>
        <mxCell id="mSR1EGi9H52Qq8BrN1vQ-31" value="" style="group;rotation=-180;" vertex="1" connectable="0" parent="1">
          <mxGeometry x="400" y="120" width="50" height="40" as="geometry" />
        </mxCell>
        <mxCell id="mSR1EGi9H52Qq8BrN1vQ-32" value="" style="endArrow=none;html=1;rounded=0;" edge="1" parent="mSR1EGi9H52Qq8BrN1vQ-31">
          <mxGeometry width="50" height="50" relative="1" as="geometry">
            <mxPoint x="30" as="sourcePoint" />
            <mxPoint x="30" y="40" as="targetPoint" />
          </mxGeometry>
        </mxCell>
        <mxCell id="mSR1EGi9H52Qq8BrN1vQ-33" value="" style="endArrow=none;html=1;rounded=0;" edge="1" parent="mSR1EGi9H52Qq8BrN1vQ-31">
          <mxGeometry width="50" height="50" relative="1" as="geometry">
            <mxPoint x="40" as="sourcePoint" />
            <mxPoint x="40" y="40" as="targetPoint" />
          </mxGeometry>
        </mxCell>
        <mxCell id="mSR1EGi9H52Qq8BrN1vQ-34" value="" style="endArrow=none;html=1;rounded=0;" edge="1" parent="mSR1EGi9H52Qq8BrN1vQ-31">
          <mxGeometry width="50" height="50" relative="1" as="geometry">
            <mxPoint y="40" as="sourcePoint" />
            <mxPoint x="30" y="40" as="targetPoint" />
          </mxGeometry>
        </mxCell>
        <mxCell id="mSR1EGi9H52Qq8BrN1vQ-35" value="" style="endArrow=none;html=1;rounded=0;" edge="1" parent="mSR1EGi9H52Qq8BrN1vQ-31">
          <mxGeometry width="50" height="50" relative="1" as="geometry">
            <mxPoint as="sourcePoint" />
            <mxPoint x="30" as="targetPoint" />
          </mxGeometry>
        </mxCell>
        <mxCell id="mSR1EGi9H52Qq8BrN1vQ-36" value="" style="ellipse;whiteSpace=wrap;html=1;aspect=fixed;rotation=-180;" vertex="1" parent="mSR1EGi9H52Qq8BrN1vQ-31">
          <mxGeometry x="40" y="15" width="10" height="10" as="geometry" />
        </mxCell>
        <mxCell id="mSR1EGi9H52Qq8BrN1vQ-37" value="" style="endArrow=none;html=1;rounded=0;" edge="1" parent="1">
          <mxGeometry width="50" height="50" relative="1" as="geometry">
            <mxPoint x="320" y="200" as="sourcePoint" />
            <mxPoint x="400" y="200" as="targetPoint" />
          </mxGeometry>
        </mxCell>
        <mxCell id="mSR1EGi9H52Qq8BrN1vQ-38" value="" style="endArrow=none;html=1;rounded=0;" edge="1" parent="1">
          <mxGeometry width="50" height="50" relative="1" as="geometry">
            <mxPoint x="320" y="200" as="sourcePoint" />
            <mxPoint x="320" y="160" as="targetPoint" />
          </mxGeometry>
        </mxCell>
        <mxCell id="mSR1EGi9H52Qq8BrN1vQ-39" value="" style="endArrow=none;html=1;rounded=0;" edge="1" parent="1">
          <mxGeometry width="50" height="50" relative="1" as="geometry">
            <mxPoint x="400" y="200" as="sourcePoint" />
            <mxPoint x="400" y="160" as="targetPoint" />
          </mxGeometry>
        </mxCell>
        <mxCell id="mSR1EGi9H52Qq8BrN1vQ-40" value="" style="endArrow=none;html=1;rounded=0;" edge="1" parent="1">
          <mxGeometry width="50" height="50" relative="1" as="geometry">
            <mxPoint x="360" y="240" as="sourcePoint" />
            <mxPoint x="360" y="200" as="targetPoint" />
          </mxGeometry>
        </mxCell>
        <mxCell id="mSR1EGi9H52Qq8BrN1vQ-41" value="" style="endArrow=none;html=1;rounded=0;" edge="1" parent="1">
          <mxGeometry width="50" height="50" relative="1" as="geometry">
            <mxPoint x="360" y="360" as="sourcePoint" />
            <mxPoint x="360" y="280" as="targetPoint" />
          </mxGeometry>
        </mxCell>
        <mxCell id="mSR1EGi9H52Qq8BrN1vQ-42" value="" style="endArrow=none;html=1;rounded=0;" edge="1" parent="1">
          <mxGeometry width="50" height="50" relative="1" as="geometry">
            <mxPoint x="400" y="360" as="sourcePoint" />
            <mxPoint x="320" y="360" as="targetPoint" />
          </mxGeometry>
        </mxCell>
        <mxCell id="mSR1EGi9H52Qq8BrN1vQ-43" value="" style="endArrow=none;html=1;rounded=0;" edge="1" parent="1">
          <mxGeometry width="50" height="50" relative="1" as="geometry">
            <mxPoint x="320" y="400" as="sourcePoint" />
            <mxPoint x="320" y="360" as="targetPoint" />
          </mxGeometry>
        </mxCell>
        <mxCell id="mSR1EGi9H52Qq8BrN1vQ-44" value="" style="endArrow=none;html=1;rounded=0;" edge="1" parent="1">
          <mxGeometry width="50" height="50" relative="1" as="geometry">
            <mxPoint x="400" y="440" as="sourcePoint" />
            <mxPoint x="400" y="360" as="targetPoint" />
          </mxGeometry>
        </mxCell>
        <mxCell id="mSR1EGi9H52Qq8BrN1vQ-45" value="" style="endArrow=none;html=1;rounded=0;" edge="1" parent="1">
          <mxGeometry width="50" height="50" relative="1" as="geometry">
            <mxPoint x="320" y="480" as="sourcePoint" />
            <mxPoint x="320" y="440" as="targetPoint" />
          </mxGeometry>
        </mxCell>
        <mxCell id="mSR1EGi9H52Qq8BrN1vQ-46" value="" style="endArrow=none;html=1;rounded=0;" edge="1" parent="1">
          <mxGeometry width="50" height="50" relative="1" as="geometry">
            <mxPoint x="400" y="560" as="sourcePoint" />
            <mxPoint x="400" y="480" as="targetPoint" />
          </mxGeometry>
        </mxCell>
        <mxCell id="mSR1EGi9H52Qq8BrN1vQ-47" value="" style="endArrow=none;html=1;rounded=0;" edge="1" parent="1">
          <mxGeometry width="50" height="50" relative="1" as="geometry">
            <mxPoint x="319.72" y="560" as="sourcePoint" />
            <mxPoint x="319.72" y="520" as="targetPoint" />
          </mxGeometry>
        </mxCell>
        <mxCell id="mSR1EGi9H52Qq8BrN1vQ-48" value="" style="endArrow=none;html=1;rounded=0;" edge="1" parent="1">
          <mxGeometry width="50" height="50" relative="1" as="geometry">
            <mxPoint x="400" y="560" as="sourcePoint" />
            <mxPoint x="320" y="560" as="targetPoint" />
          </mxGeometry>
        </mxCell>
        <mxCell id="mSR1EGi9H52Qq8BrN1vQ-49" value="" style="endArrow=none;html=1;rounded=0;" edge="1" parent="1">
          <mxGeometry width="50" height="50" relative="1" as="geometry">
            <mxPoint x="440" y="320" as="sourcePoint" />
            <mxPoint x="360" y="320" as="targetPoint" />
          </mxGeometry>
        </mxCell>
        <mxCell id="mSR1EGi9H52Qq8BrN1vQ-50" value="" style="endArrow=none;html=1;rounded=0;" edge="1" parent="1">
          <mxGeometry width="50" height="50" relative="1" as="geometry">
            <mxPoint x="460" y="460" as="sourcePoint" />
            <mxPoint x="440" y="459.58000000000004" as="targetPoint" />
          </mxGeometry>
        </mxCell>
        <mxCell id="mSR1EGi9H52Qq8BrN1vQ-51" value="" style="endArrow=none;html=1;rounded=0;" edge="1" parent="1">
          <mxGeometry width="50" height="50" relative="1" as="geometry">
            <mxPoint x="260" y="500" as="sourcePoint" />
            <mxPoint x="280" y="500.00000000000006" as="targetPoint" />
          </mxGeometry>
        </mxCell>
        <mxCell id="mSR1EGi9H52Qq8BrN1vQ-53" value="" style="endArrow=none;html=1;rounded=0;" edge="1" parent="1">
          <mxGeometry width="50" height="50" relative="1" as="geometry">
            <mxPoint x="260" y="420" as="sourcePoint" />
            <mxPoint x="280" y="420" as="targetPoint" />
          </mxGeometry>
        </mxCell>
        <mxCell id="mSR1EGi9H52Qq8BrN1vQ-54" value="" style="endArrow=none;html=1;rounded=0;entryX=0;entryY=0.5;entryDx=0;entryDy=0;" edge="1" parent="1">
          <mxGeometry width="50" height="50" relative="1" as="geometry">
            <mxPoint x="260" y="140" as="sourcePoint" />
            <mxPoint x="269.9999999999998" y="140.0000000000001" as="targetPoint" />
          </mxGeometry>
        </mxCell>
        <mxCell id="mSR1EGi9H52Qq8BrN1vQ-55" value="" style="endArrow=none;html=1;rounded=0;entryX=0;entryY=0.5;entryDx=0;entryDy=0;" edge="1" parent="1" target="mSR1EGi9H52Qq8BrN1vQ-22">
          <mxGeometry width="50" height="50" relative="1" as="geometry">
            <mxPoint x="300" y="260" as="sourcePoint" />
            <mxPoint x="460.9999999999998" y="141.0000000000001" as="targetPoint" />
          </mxGeometry>
        </mxCell>
        <mxCell id="mSR1EGi9H52Qq8BrN1vQ-56" value="" style="endArrow=none;html=1;rounded=0;entryX=0;entryY=0.5;entryDx=0;entryDy=0;" edge="1" parent="1" target="mSR1EGi9H52Qq8BrN1vQ-36">
          <mxGeometry width="50" height="50" relative="1" as="geometry">
            <mxPoint x="460" y="140" as="sourcePoint" />
            <mxPoint x="320" y="270" as="targetPoint" />
          </mxGeometry>
        </mxCell>
        <mxCell id="mSR1EGi9H52Qq8BrN1vQ-57" value="" style="endArrow=none;html=1;rounded=0;" edge="1" parent="1">
          <mxGeometry width="50" height="50" relative="1" as="geometry">
            <mxPoint x="320" y="120" as="sourcePoint" />
            <mxPoint x="320" y="80" as="targetPoint" />
          </mxGeometry>
        </mxCell>
        <mxCell id="mSR1EGi9H52Qq8BrN1vQ-58" value="" style="endArrow=none;html=1;rounded=0;" edge="1" parent="1">
          <mxGeometry width="50" height="50" relative="1" as="geometry">
            <mxPoint x="399.43" y="120" as="sourcePoint" />
            <mxPoint x="399.43" y="80" as="targetPoint" />
          </mxGeometry>
        </mxCell>
        <mxCell id="mSR1EGi9H52Qq8BrN1vQ-59" value="" style="endArrow=none;html=1;rounded=0;" edge="1" parent="1">
          <mxGeometry width="50" height="50" relative="1" as="geometry">
            <mxPoint x="320" y="80" as="sourcePoint" />
            <mxPoint x="400" y="80" as="targetPoint" />
          </mxGeometry>
        </mxCell>
        <mxCell id="mSR1EGi9H52Qq8BrN1vQ-60" value="" style="endArrow=none;html=1;rounded=0;" edge="1" parent="1">
          <mxGeometry width="50" height="50" relative="1" as="geometry">
            <mxPoint x="360" y="580" as="sourcePoint" />
            <mxPoint x="360" y="560" as="targetPoint" />
          </mxGeometry>
        </mxCell>
        <mxCell id="mSR1EGi9H52Qq8BrN1vQ-61" value="" style="endArrow=none;html=1;rounded=0;" edge="1" parent="1">
          <mxGeometry width="50" height="50" relative="1" as="geometry">
            <mxPoint x="380" y="580" as="sourcePoint" />
            <mxPoint x="340" y="580" as="targetPoint" />
          </mxGeometry>
        </mxCell>
        <mxCell id="mSR1EGi9H52Qq8BrN1vQ-62" value="" style="endArrow=none;html=1;rounded=0;" edge="1" parent="1">
          <mxGeometry width="50" height="50" relative="1" as="geometry">
            <mxPoint x="370" y="590" as="sourcePoint" />
            <mxPoint x="350" y="590" as="targetPoint" />
          </mxGeometry>
        </mxCell>
        <mxCell id="mSR1EGi9H52Qq8BrN1vQ-63" value="" style="endArrow=none;html=1;rounded=0;" edge="1" parent="1">
          <mxGeometry width="50" height="50" relative="1" as="geometry">
            <mxPoint x="360" y="80" as="sourcePoint" />
            <mxPoint x="360" y="60" as="targetPoint" />
          </mxGeometry>
        </mxCell>
        <mxCell id="mSR1EGi9H52Qq8BrN1vQ-64" value="" style="endArrow=none;html=1;rounded=0;" edge="1" parent="1">
          <mxGeometry width="50" height="50" relative="1" as="geometry">
            <mxPoint x="380" y="60" as="sourcePoint" />
            <mxPoint x="340" y="60" as="targetPoint" />
          </mxGeometry>
        </mxCell>
        <mxCell id="mSR1EGi9H52Qq8BrN1vQ-65" value="A" style="text;html=1;align=center;verticalAlign=middle;whiteSpace=wrap;rounded=0;" vertex="1" parent="1">
          <mxGeometry x="240" y="130" width="20" height="20" as="geometry" />
        </mxCell>
        <mxCell id="mSR1EGi9H52Qq8BrN1vQ-66" value="C" style="text;html=1;align=center;verticalAlign=middle;whiteSpace=wrap;rounded=0;" vertex="1" parent="1">
          <mxGeometry x="280" y="250" width="20" height="20" as="geometry" />
        </mxCell>
        <mxCell id="mSR1EGi9H52Qq8BrN1vQ-67" value="B" style="text;html=1;align=center;verticalAlign=middle;whiteSpace=wrap;rounded=0;" vertex="1" parent="1">
          <mxGeometry x="460" y="130" width="20" height="20" as="geometry" />
        </mxCell>
        <mxCell id="mSR1EGi9H52Qq8BrN1vQ-68" value="A" style="text;html=1;align=center;verticalAlign=middle;whiteSpace=wrap;rounded=0;" vertex="1" parent="1">
          <mxGeometry x="240" y="410" width="20" height="20" as="geometry" />
        </mxCell>
        <mxCell id="mSR1EGi9H52Qq8BrN1vQ-69" value="B" style="text;html=1;align=center;verticalAlign=middle;whiteSpace=wrap;rounded=0;" vertex="1" parent="1">
          <mxGeometry x="240" y="490" width="20" height="20" as="geometry" />
        </mxCell>
        <mxCell id="mSR1EGi9H52Qq8BrN1vQ-70" value="C" style="text;html=1;align=center;verticalAlign=middle;whiteSpace=wrap;rounded=0;" vertex="1" parent="1">
          <mxGeometry x="460" y="450" width="20" height="20" as="geometry" />
        </mxCell>
        <mxCell id="mSR1EGi9H52Qq8BrN1vQ-71" value="Text" style="text;html=1;align=center;verticalAlign=middle;whiteSpace=wrap;rounded=0;" vertex="1" parent="1">
          <mxGeometry x="120" y="80" width="60" height="30" as="geometry" />
        </mxCell>
      </root>
    </mxGraphModel>
  </diagram>
</mxfile>
